<svg width="44" height="44" viewBox="0 0 44 44" fill="none" xmlns="http://www.w3.org/2000/svg">
<path fill-rule="evenodd" clip-rule="evenodd" d="M21.043 12.4352V22.0008C21.043 22.2541 21.1435 22.4981 21.3232 22.6772L27.0624 28.4164C27.4355 28.7892 28.0421 28.7892 28.4152 28.4164C28.788 28.0433 28.788 27.4367 28.4152 27.0636L22.9563 21.6049V12.4353C22.9563 11.9075 22.5277 11.479 21.9996 11.479C21.4715 11.479 21.043 11.9075 21.043 12.4353V12.4352Z" fill="#52489C"/>
<path fill-rule="evenodd" clip-rule="evenodd" d="M41.3294 16.5223C41.8229 18.2633 42.0868 20.1016 42.0868 22.0005C42.0868 33.0862 33.0853 42.0877 21.9996 42.0877C10.914 42.0877 1.91243 33.0862 1.91243 22.0005C1.91243 10.9148 10.914 1.91327 21.9996 1.91327C28.7899 1.91327 34.7981 5.29079 38.4351 10.4548C38.6753 10.7963 39.1086 10.9416 39.5063 10.8164C39.9041 10.6902 40.1741 10.321 40.1741 9.90398V4.78256C40.1741 4.25444 39.7456 3.82592 39.2174 3.82592C38.6893 3.82592 38.2608 4.25444 38.2608 4.78256V7.18712C34.2357 2.77187 28.4394 0 22 0C9.85749 0 0 9.85749 0 22C0 34.1425 9.85749 44 22 44C34.1425 44 44 34.1425 44 22C44 19.9205 43.7102 17.907 43.1708 15.9997C43.0264 15.4918 42.4973 15.1962 41.9894 15.3406C41.4815 15.4841 41.1862 16.0138 41.3296 16.5218L41.3294 16.5223Z" fill="#52489C"/>
<path fill-rule="evenodd" clip-rule="evenodd" d="M21.9996 3.82666C11.9691 3.82666 3.8252 11.9708 3.8252 22.0011C3.8252 32.0314 11.9693 40.1755 21.9996 40.1755C32.0299 40.1755 40.174 32.0314 40.174 22.0011C40.174 11.9708 32.0299 3.82666 21.9996 3.82666ZM22.9563 5.76749C26.7239 5.98656 30.1491 7.49114 32.7998 9.84807L30.7921 11.8549C30.4193 12.229 30.4193 12.8346 30.7921 13.2087C31.1661 13.5815 31.7718 13.5815 32.1459 13.2087L34.1527 11.201C36.5095 13.8515 38.0142 17.2767 38.2333 21.0445H35.3912C34.8634 21.0445 34.4349 21.473 34.4349 22.0012C34.4349 22.5293 34.8634 22.9578 35.3912 22.9578H38.2333C38.0142 26.7254 36.5096 30.1507 34.1527 32.8013L32.1459 30.7936C31.7718 30.4208 31.1662 30.4208 30.7921 30.7936C30.4193 31.1677 30.4193 31.7733 30.7921 32.1474L32.7998 34.1542C30.1493 36.5111 26.724 38.0157 22.9563 38.2348V35.3928C22.9563 34.865 22.5277 34.4364 21.9996 34.4364C21.4715 34.4364 21.043 34.865 21.043 35.3928V38.2348C17.2753 38.0158 13.8501 36.5112 11.1994 34.1542L13.2072 32.1474C13.5799 31.7733 13.5799 31.1677 13.2072 30.7936C12.8331 30.4208 12.2275 30.4208 11.8534 30.7936L9.84652 32.8013C7.48968 30.1508 5.98502 26.7256 5.76595 22.9578H8.608C9.1358 22.9578 9.56432 22.5293 9.56432 22.0012C9.56432 21.473 9.13579 21.0445 8.608 21.0445H5.76595C5.98501 17.2769 7.48959 13.8517 9.84652 11.201L11.8534 13.2087C12.2274 13.5815 12.833 13.5815 13.2072 13.2087C13.5799 12.8346 13.5799 12.229 13.2072 11.8549L11.1994 9.84807C13.8499 7.49122 17.2752 5.98657 21.043 5.76749V8.60955C21.043 9.13735 21.4715 9.56586 21.9996 9.56586C22.5277 9.56586 22.9563 9.13734 22.9563 8.60955V5.76749Z" fill="#52489C"/>
</svg>
