<svg width="47" height="42" viewBox="0 0 47 42" fill="none" xmlns="http://www.w3.org/2000/svg">
<path d="M35.8829 11.3105C35.8829 11.2987 35.8711 11.29 35.8664 11.2782C35.826 11.1946 35.7767 11.1155 35.7194 11.0424C35.699 11.0188 35.6769 10.9968 35.6534 10.9763C35.6044 10.9333 35.5503 10.8966 35.4922 10.8671C35.4688 10.8532 35.4446 10.8406 35.4199 10.8293C35.3343 10.7945 35.2433 10.7753 35.151 10.7727L29.2656 10.6619H29.2468L24.6531 10.5762L20.4777 10.4976C20.3237 10.4976 20.1728 10.5401 20.0413 10.6202L11.4287 16.1015C11.4051 16.1164 11.3925 16.14 11.3713 16.1565C11.3289 16.1891 11.2901 16.2263 11.2557 16.2674C11.2243 16.3046 11.1966 16.3449 11.1732 16.3876C11.1491 16.4304 11.1293 16.4754 11.1142 16.5221C11.0977 16.5732 11.0864 16.6259 11.0804 16.6793C11.0804 16.7053 11.0647 16.7273 11.0647 16.754L10.7911 32.855C10.7894 32.9593 10.8085 33.0629 10.8473 33.1597C10.8861 33.2566 10.9437 33.3447 11.0169 33.4191C11.0901 33.4934 11.1773 33.5525 11.2735 33.5928C11.3697 33.6331 11.473 33.6538 11.5773 33.6538H28.1508C28.2556 33.6539 28.3593 33.633 28.4559 33.5925C28.4629 33.5925 28.4692 33.5822 28.4763 33.5783C28.5643 33.5391 28.6443 33.484 28.7122 33.4156C28.7122 33.4116 28.72 33.4109 28.7239 33.4077L35.7092 26.0058C35.8471 25.8598 35.9239 25.6665 35.9238 25.4657V11.5558C35.9234 11.4723 35.9096 11.3895 35.8829 11.3105ZM28.1202 16.0134H24.5037L29.4142 12.2397L32.897 12.305L28.1202 16.0134ZM21.4132 23.2416L20.0138 22.5458C19.9047 22.4932 19.7851 22.4664 19.664 22.4672H19.6553H19.6372C19.5155 22.4701 19.3962 22.5016 19.289 22.5592L18.1278 23.1881V17.1644L24.8889 12.1517L26.8929 12.1894L21.7096 16.1762C21.6955 16.1864 21.6892 16.2021 21.6766 16.2139C21.6611 16.2229 21.6461 16.2329 21.6318 16.2438C21.6091 16.2724 21.5889 16.3029 21.5713 16.335C21.5393 16.3732 21.5116 16.4149 21.4887 16.4592C21.4686 16.5033 21.453 16.5494 21.4423 16.5968C21.4267 16.6479 21.4166 16.7007 21.4124 16.754C21.4124 16.7713 21.4022 16.7862 21.4022 16.8043L21.4132 23.2416ZM20.6868 12.0778L22.315 12.1077L17.079 15.9875H14.5459L20.6868 12.0778ZM12.6237 17.552H16.5546V24.5065C16.5545 24.6429 16.5899 24.777 16.6573 24.8955C16.7247 25.0141 16.8217 25.1131 16.9389 25.1828C17.0561 25.2525 17.1895 25.2905 17.3258 25.2931C17.4621 25.2957 17.5968 25.2628 17.7166 25.1976L19.6821 24.1323L21.8519 25.211C21.9537 25.2606 22.065 25.2874 22.1782 25.2896C22.1868 25.2896 22.1939 25.2951 22.2026 25.2951C22.2112 25.2951 22.2136 25.2951 22.2199 25.2951C22.2659 25.2931 22.3117 25.2867 22.3567 25.2762C22.3787 25.2715 22.4023 25.2707 22.4243 25.2644C22.492 25.245 22.5568 25.2164 22.6169 25.1795C22.7307 25.1089 22.8246 25.0104 22.8897 24.8933C22.9548 24.7762 22.9889 24.6444 22.9887 24.5105L22.9801 17.5866H27.5934L27.3764 32.083H12.3776L12.6237 17.552ZM28.9669 30.855L29.1681 17.1888L34.3483 13.1651V25.1512L28.9669 30.855Z" fill="#52489C"/>
<path d="M46.268 15.2122C46.1892 15.1453 46.0981 15.0946 45.9998 15.063C45.9015 15.0313 45.7979 15.0193 45.695 15.0277C45.592 15.0361 45.4917 15.0647 45.3998 15.1119C45.308 15.1591 45.2263 15.2239 45.1594 15.3026L43.9236 16.7586C43.0267 12.4201 40.7815 8.47605 37.5088 5.49003C34.236 2.504 30.1032 0.628796 25.7009 0.13236C21.2985 -0.364077 16.8519 0.543656 12.9963 2.72585C9.1408 4.90805 6.07364 8.25305 4.23312 12.2829C4.14649 12.4727 4.13882 12.6892 4.2118 12.8847C4.28478 13.0802 4.43243 13.2387 4.62228 13.3254C4.81213 13.412 5.02862 13.4197 5.22412 13.3467C5.41962 13.2737 5.57812 13.1261 5.66476 12.9362C7.36616 9.21049 10.2008 6.11731 13.7643 4.09801C17.3277 2.07871 21.4379 1.23647 25.5084 1.69146C29.5789 2.14645 33.4017 3.87541 36.4313 6.63167C39.461 9.38793 41.5427 13.0307 42.3795 17.0401L40.8071 16.1195C40.6274 16.0158 40.414 15.9875 40.2134 16.0405C40.0128 16.0936 39.8414 16.2238 39.7364 16.4028C39.6314 16.5817 39.6014 16.7949 39.6529 16.9959C39.7045 17.1968 39.8334 17.3693 40.0115 17.4756L43.0257 19.2422C43.054 19.2564 43.0831 19.2688 43.113 19.2791C43.1374 19.2894 43.1602 19.3011 43.1845 19.309C43.2606 19.3346 43.3402 19.3484 43.4204 19.3499C43.5209 19.3486 43.6203 19.3277 43.7129 19.2886C43.7368 19.279 43.7602 19.268 43.7828 19.2555C43.8072 19.243 43.8339 19.2367 43.8575 19.2217C43.9193 19.1806 43.9752 19.1312 44.0234 19.0747L46.3584 16.3231C46.4256 16.2443 46.4766 16.153 46.5085 16.0545C46.5403 15.956 46.5524 15.8521 46.544 15.7489C46.5356 15.6456 46.5069 15.5451 46.4595 15.453C46.4122 15.3609 46.347 15.2791 46.268 15.2122Z" fill="#52489C"/>
<path d="M43.5086 22.7276C43.3017 22.7018 43.0931 22.7592 42.9286 22.8871C42.7641 23.0151 42.6571 23.2032 42.6312 23.41C42.0086 28.3702 39.4982 32.8997 35.6219 36.0566C31.7456 39.2134 26.8016 40.7548 21.818 40.3602C16.8345 39.9655 12.1947 37.6652 8.8636 33.9376C5.53245 30.21 3.76621 25.3418 3.93212 20.3454L5.17272 21.7346C5.24148 21.8116 5.32473 21.8744 5.41773 21.9192C5.51073 21.964 5.61165 21.9901 5.71473 21.996C5.81782 22.0018 5.92104 21.9873 6.01851 21.9532C6.11598 21.9192 6.20579 21.8663 6.28281 21.7975C6.35983 21.7287 6.42255 21.6455 6.46739 21.5525C6.51223 21.4595 6.53832 21.3586 6.54416 21.2555C6.55 21.1524 6.53548 21.0492 6.50143 20.9517C6.46738 20.8542 6.41446 20.7644 6.3457 20.6874L4.16797 18.2463C4.10371 18.1767 4.02724 18.1194 3.94234 18.0773C3.87878 17.9745 3.79204 17.888 3.68906 17.8248C3.58609 17.7615 3.46974 17.7232 3.34932 17.713C3.22891 17.7028 3.10776 17.7208 2.99559 17.7658C2.88341 17.8108 2.78332 17.8814 2.70332 17.9719L0.203254 20.7346C0.0633449 20.8892 -0.00941596 21.0931 0.000978414 21.3013C0.0113728 21.5096 0.104071 21.7052 0.25868 21.8451C0.413289 21.985 0.617145 22.0577 0.825401 22.0473C1.03366 22.037 1.22925 21.9443 1.36916 21.7896L2.3456 20.711C2.27303 26.0799 4.25923 31.2727 7.89618 35.2228C11.5331 39.1728 16.5447 41.5802 21.9013 41.9502C27.2579 42.3202 32.5529 40.6249 36.6984 37.2125C40.844 33.8001 43.5254 28.9297 44.1918 23.6018C44.2166 23.3953 44.1587 23.1874 44.0307 23.0236C43.9026 22.8598 43.7149 22.7533 43.5086 22.7276Z" fill="#52489C"/>
</svg>
