<svg width="71" height="34" viewBox="0 0 71 34" fill="none" xmlns="http://www.w3.org/2000/svg">
<path d="M70.0947 26.682H70.0952C69.7042 24.9643 68.8343 23.4027 67.5794 22.1661C66.3245 20.9295 64.7506 20.0826 63.0269 19.7167C61.997 19.4981 60.9459 19.4585 59.9148 19.5942C60.0339 19.3518 60.1479 19.1046 60.2564 18.8528H63.3306C64.3826 18.8528 65.5171 17.7093 65.9557 17.218C66.39 16.7314 67.4003 15.4726 67.4003 14.2952C67.4003 13.76 67.1859 13.2938 66.7967 12.9824C66.4338 12.6919 65.9327 12.5447 65.3074 12.5447H61.7622C61.8337 11.7335 61.8703 10.8955 61.8703 10.0319V8.74598C61.8703 8.59837 61.9902 8.47841 62.1378 8.47841H63.3732V8.47331C64.7208 8.41418 65.5384 7.77525 65.9931 7.235C66.5768 6.54077 66.8984 5.60789 66.8984 4.60823C66.8984 3.60517 66.5798 2.65315 66.0017 1.92743C65.3317 1.08687 64.3588 0.624469 63.2626 0.624469H59.808C57.5913 0.624469 55.7881 2.42769 55.7881 4.64439V6.17025L52.1306 8.47288C51.7329 8.72343 51.6137 9.24836 51.8639 9.6461C52.0255 9.90304 52.302 10.0438 52.5845 10.0438C52.7393 10.0438 52.8963 10.0017 53.0371 9.91282L55.7877 8.18106V9.05311C55.7877 14.2297 54.3864 17.9884 51.6231 20.2238C49.4421 21.9883 46.3155 22.8833 42.3301 22.8833C42.3084 22.8833 42.2892 22.8829 42.2718 22.8821C42.2795 22.7668 42.3139 22.5541 42.4339 22.1921C42.5938 21.7114 42.8427 21.1431 43.1064 20.542C43.9414 18.6371 44.8046 16.6676 43.9185 15.3118C43.7913 15.117 43.6343 14.949 43.4497 14.8056C43.7666 14.2952 43.9372 13.666 43.9372 13.0462C43.9372 11.5391 42.9648 10.4862 41.5729 10.4862C39.7203 10.4862 38.5458 10.1004 37.41 9.72778C36.6494 9.47807 35.9208 9.23901 35.0704 9.13861V0.850776C35.0704 0.380722 34.6897 0 34.2196 0H20.2388C19.7688 0 19.388 0.380722 19.388 0.850776V14.8329C19.388 15.3029 19.7688 15.6836 20.2388 15.6836H20.4383C19.9194 16.9105 20.0427 18.7192 20.1725 20.6135C20.2227 21.3468 20.2737 22.1023 20.2831 22.7948C19.5765 24.1803 19.2021 25.7232 19.2021 27.3235C19.2021 27.7936 19.5829 28.1743 20.0529 28.1743H22.5648C22.9838 31.4558 25.7944 34 29.1877 34C32.581 34 35.3911 31.4553 35.8102 28.1743H43.6356C46.8707 28.1743 49.7072 27.6889 52.1268 26.7284C52.1187 26.7756 52.1136 26.8241 52.1136 26.8739C52.1136 27.344 52.4947 27.7247 52.9644 27.7247L54.3592 27.7242C54.7752 30.9449 57.5347 33.441 60.8664 33.441C64.1989 33.441 66.9592 30.9436 67.374 27.7217L69.2657 27.7213C69.7353 27.7213 70.1164 27.3401 70.1164 26.8705C70.1164 26.8058 70.1083 26.7429 70.0947 26.682ZM65.3078 14.2467C65.5295 14.2467 65.6465 14.2765 65.6996 14.296C65.6988 14.4262 65.6218 14.8078 65.2019 15.4276C64.523 16.4298 63.6033 17.1095 63.3217 17.1512H60.8834C61.1684 16.2362 61.3917 15.2659 61.5538 14.2463H65.3078V14.2467ZM65.1972 4.60866C65.1972 5.20845 65.0177 5.7521 64.6915 6.14005C64.5307 6.33148 64.3375 6.47951 64.1138 6.58458V2.52213C64.8527 2.9037 65.1972 3.77957 65.1972 4.60866ZM36.8804 11.3447C38.0843 11.7399 39.4489 12.1882 41.5737 12.1882C42.0136 12.1882 42.2365 12.4771 42.2365 13.0467C42.2365 13.3746 42.1412 13.7103 41.9813 13.9446C41.7971 14.2148 41.629 14.2148 41.5737 14.2148C41.5491 14.2148 41.5252 14.2165 41.5014 14.2186C41.4368 14.2165 41.3721 14.2148 41.3053 14.2148H35.0717V10.8563C35.6838 10.952 36.2526 11.1388 36.8804 11.3447ZM21.0896 1.70155H33.3701V13.9821H21.0896V1.70155ZM29.1873 19.0395C33.468 19.0395 37.0008 22.3031 37.4283 26.4728H20.9467C21.3742 22.3031 24.9066 19.0395 29.1873 19.0395ZM29.1873 32.2989C26.7341 32.2989 24.6901 30.5139 24.2851 28.1747H34.089C33.6845 30.5139 31.6405 32.2989 29.1873 32.2989ZM39.1371 26.4728C38.9406 24.1263 37.9328 21.9466 36.2487 20.2625C34.3626 18.3763 31.8549 17.338 29.1877 17.338C26.5205 17.338 24.0129 18.3768 22.1267 20.2625C22.0399 20.3493 21.9553 20.4382 21.8719 20.5275C21.871 20.5173 21.8706 20.5071 21.8698 20.4973C21.7974 19.4407 21.7294 18.4427 21.7745 17.603C21.8268 16.6335 22.0178 16.2371 22.1692 16.075C22.2424 15.9967 22.3538 15.9163 22.6269 15.9163H41.3053C41.926 15.9163 42.3594 16.0354 42.4951 16.2426C42.5747 16.3643 42.6751 16.6914 42.4543 17.5149C42.262 18.2313 41.8996 19.0587 41.5486 19.8588C40.7974 21.5727 40.204 22.9267 40.8285 23.8821C41.0382 24.2029 41.4687 24.5849 42.3309 24.5849C44.3451 24.5849 46.1824 24.3705 47.7912 23.9472C49.694 23.447 51.3436 22.6392 52.6942 21.5463C54.2205 20.3114 55.3984 18.6873 56.1948 16.719C57.054 14.5959 57.4896 12.0164 57.4896 9.05268V7.10909L60.2615 5.36372C60.6592 5.11317 60.7783 4.58824 60.5282 4.1905C60.2776 3.79276 59.7523 3.67365 59.355 3.92378L57.4896 5.09828V4.64396C57.4896 3.36567 58.5297 2.3256 59.808 2.3256H62.4118V6.77601H62.1383C61.0523 6.77601 60.1692 7.65954 60.1692 8.74513V10.0311C60.1692 20.7866 54.4519 26.4715 43.6356 26.4715H39.1371V26.4728ZM57.2327 23.4006C57.7768 22.8497 58.2745 22.2508 58.7258 21.608C59.9977 21.1805 61.3573 21.1014 62.6738 21.3809C65.1692 21.9105 67.2119 23.6814 68.118 26.0197L53.6667 26.0223C55.0092 25.3195 56.1999 24.4458 57.2327 23.4006ZM60.8668 31.7395C58.4748 31.7395 56.4815 30.0026 56.0803 27.7238L65.6533 27.7221C65.253 30.0018 63.2592 31.7395 60.8668 31.7395Z" fill="#52489C"/>
<path d="M16.5073 7.93945H5.70332C5.23326 7.93945 4.85254 8.32018 4.85254 8.79023C4.85254 9.26028 5.23326 9.64101 5.70332 9.64101H16.5073C16.9774 9.64101 17.3581 9.26028 17.3581 8.79023C17.3581 8.32018 16.977 7.93945 16.5073 7.93945Z" fill="#52489C"/>
<path d="M13.1168 12.6628H0.850776C0.380722 12.6628 0 13.0436 0 13.5136C0 13.9837 0.380722 14.3644 0.850776 14.3644H13.1168C13.5869 14.3644 13.9676 13.9837 13.9676 13.5136C13.9676 13.044 13.5865 12.6628 13.1168 12.6628Z" fill="#52489C"/>
<path d="M0.850776 4.91737H13.1168C13.5869 4.91737 13.9676 4.53665 13.9676 4.0666C13.9676 3.59654 13.5869 3.21582 13.1168 3.21582H0.850776C0.380722 3.21582 0 3.59654 0 4.0666C0 4.53665 0.380722 4.91737 0.850776 4.91737Z" fill="#52489C"/>
</svg>
